<svg width="31" height="22" viewBox="0 0 31 22" fill="none" xmlns="http://www.w3.org/2000/svg">
<path d="M24.8125 13.6875C24.8125 14.3958 24.5417 15.0208 24 15.5625C23.5 16.0625 22.8958 16.3125 22.1875 16.3125H3.5C2.75 16.3125 2.10417 16.0625 1.5625 15.5625C1.0625 15.0208 0.8125 14.3958 0.8125 13.6875V3C0.8125 2.25 1.0625 1.625 1.5625 1.125C2.10417 0.583333 2.75 0.3125 3.5 0.3125H22.1875C22.8958 0.3125 23.5 0.583333 24 1.125C24.5417 1.625 24.8125 2.25 24.8125 3V13.6875ZM12.8125 12.3125C13.5625 12.3125 14.2292 12.1458 14.8125 11.8125C15.4375 11.4375 15.9167 10.9583 16.25 10.375C16.625 9.75 16.8125 9.0625 16.8125 8.3125C16.8125 7.60417 16.625 6.95833 16.25 6.375C15.9167 5.75 15.4375 5.25 14.8125 4.875C14.2292 4.5 13.5625 4.3125 12.8125 4.3125C12.1042 4.3125 11.4375 4.5 10.8125 4.875C10.2292 5.25 9.75 5.75 9.375 6.375C9 6.95833 8.8125 7.60417 8.8125 8.3125C8.8125 9.0625 9 9.75 9.375 10.375C9.75 10.9583 10.2292 11.4375 10.8125 11.8125C11.4375 12.1458 12.1042 12.3125 12.8125 12.3125ZM30.1875 4.3125H27.5V19H4.8125V21.6875H27.5C28.25 21.6875 28.875 21.4375 29.375 20.9375C29.9167 20.3958 30.1875 19.75 30.1875 19V4.3125Z" fill="#F5F5F5"/>
</svg>
